<?xml version="1.0" encoding="utf-8"?>
<!-- Generator: Adobe Illustrator 21.1.0, SVG Export Plug-In . SVG Version: 6.00 Build 0)  -->
<svg version="1.1" id="Layer_1" xmlns="http://www.w3.org/2000/svg" xmlns:xlink="http://www.w3.org/1999/xlink" x="0px" y="0px"
	 viewBox="0 0 400 70" style="enable-background:new 0 0 400 70;" xml:space="preserve">
<style type="text/css">
	.st0{clip-path:url(#SVGID_2_);fill:#FF6900;}
	.st1{clip-path:url(#SVGID_2_);}
	.st2{clip-path:url(#SVGID_2_);fill:#FFFFFF;}
</style>
<g>
	<defs>
		<rect id="SVGID_1_" x="2.8" y="3" width="391.1" height="64"/>
	</defs>
	<clipPath id="SVGID_2_">
		<use xlink:href="#SVGID_1_"  style="overflow:visible;"/>
	</clipPath>
	<path class="st0" d="M31.4,3c18.6,0,32.9,12.8,32.9,31.8C64.4,54,50.1,67,31.4,67H10.5c-4.2,0-7.7-2.8-7.7-7.7V11
		c0-4.9,3.5-8,7.7-8H31.4z"/>
	<path class="st1" d="M52.8,28.4c-0.1,0.8-1,0.8-1.4,0.1c-1.3-2.2-3-2.6-5.7-2.8c-2-0.1-4.4,0.1-6.6,0.1c-0.4,0-0.5-0.3-0.5-0.5
		c0.4-1.9,2-5.4,3.7-5.7c0.8-0.1,2.6-0.3,3.6-0.3C50.5,19.4,53,24.7,52.8,28.4 M26.8,46.5c2.9,0.8,7,1.3,10.4,1
		c5.9-0.4,10.4-2.6,12.9-4.2c-1.5,3.8-7.2,6.2-12.6,6.8c0,0.3-0.1,0.5-0.1,0.8c4.1-0.2,8-1.6,9.8-2.8c-1,3.7-6,5.2-10.6,5.5
		c-0.1,0.3-0.3,0.6-0.4,0.8c2.7,0,5.2-0.4,6.7-0.9c-2.1,3.9-11.1,6.6-18.7,3C25.9,53.1,26.7,49.7,26.8,46.5 M51.9,19.9
		c-1.8-1.7-4.2-2.5-6.3-2.4c-3,0-5.5,0.8-9.2,0.9c-2.5,0.1-4.8-5.4-7.8-6.1c-1.3-2.9-4.3-3.3-6.1-1.8c-1.7-1-4.3-0.5-4.4,1.4
		c-1.9-0.6-4.4,0.4-3.3,3c-4.7,0.1-5.5,4.3-2.4,4.7c-4.1,2.3-2.2,6.3,1.2,5.5c0.6,6,3.3,13.8-1.1,15.7c-0.5,0.2-2.5,0.7-6.3-0.2
		c-1.1-0.3-2.3-0.6-3.4-0.9v3.1c3.3,0.8,6.6,1.4,8.7,1.2c5.8-0.6,6.1-5.4,5.8-9.6c-0.3-4.1-1.7-8.9-1.2-12.3l-0.2-0.2
		c-2.1,2.2-3.5,1.6-3.7,0.9c-0.3-1.4,2.2-3.2,3.6-3.8c0-0.1,0.1-0.2,0.1-0.3c-1.3,0.2-2.9,0-3-0.9c-0.1-1.1,2.2-2.2,5.2-1.9
		c0.1,0,0.1-0.1,0.2-0.1c-0.2-0.1-0.4-0.2-0.6-0.3c-0.8-0.4-1-1.1-0.7-1.5c0.3-0.5,1.1-0.7,1.8-0.7c1.1,0,2,0.3,2.7,0.6
		c0.1,0,0.2-0.1,0.2-0.1c-0.2-0.2-0.5-0.4-0.6-0.6c-0.2-0.3-0.2-0.8,0.1-1c0.4-0.3,1.5-0.4,2.4,0.4c0.2,0.2,0.4,0.4,0.5,0.5
		c0.1,0,0.2,0,0.3-0.1c-0.2-0.2-0.3-0.5-0.3-0.7c-0.1-0.3,0.1-0.7,0.4-0.8c0.4-0.1,0.9,0.1,1.2,0.5c0.3,0.4,0.5,1,0.6,1.3
		c-2.1,0.2-4.6,1-6.1,3.1l0,0l0,0c0,0,0,0,0,0c-1.5,2-2.1,5.2-1.2,8.2c0.6,3.1,1.8,6,2.9,9v0c0,0,0,0,0,0c0,0,0,0,0,0.1l0,0
		c2.4,6.9,7,23.9-15.3,32.9c1.1,0.5,2.4,0.9,3.7,0.9h2.3c4.6-2.4,7.7-5.3,9.9-8.2c10.2,4.5,19.5,2.2,23.5-5.2
		c2.7-1.6,4.4-4.9,4.5-7.2c1.7-2.1,2-4.7,1.5-6.5c-0.1-0.4-0.5-0.4-1.1-0.1c-8.3,5-15.6,5.8-24.3,3.2c-0.2-3.4-0.9-6.3-1.2-8.1
		c-0.2-3.5,0.9-5.2,7.3-3.1c4.2,1.1,6.1,3,7.6,4c0.7,0.5,1.6,1.1,2.1,0.7c0.3-0.2,0.4-0.8,0.4-1.5c-0.1-1.9-1-5.1-1.8-6.3
		c2.5-0.1,4.6-0.1,5.7,0c2.4,0.4,2.6,1.7,2.9,2.2c0.7,2,4.6,1.5,4.9-0.2C55.1,27.7,55.3,23.1,51.9,19.9 M7.5,49.9
		c-1.6-0.1-3.2-0.1-4.7,0V52c2.7-0.6,4.4-0.9,4.4-0.9L7.5,49.9z"/>
	<path class="st2" d="M32.5,28c-3.5-0.8-7.4-1.8-9.4-4.8c0-0.1-0.1-0.1-0.2-0.1c-0.1,0-0.1,0.1-0.1,0.1c0,0.2,0,0.3,0.1,0.5
		l-0.3,0.1c-0.5-0.8-0.7-1.7-0.1-2.4c0.8-1,2.3-0.9,3.3-0.3l-0.1,0.3c-0.5-0.1-1-0.1-1.4,0.1c-0.3,0.2-0.4,0.5-0.2,0.8
		c1.7,3.2,6.7,3.9,12.6,3.4c0.6,0,0.7-0.3,0.8-0.6c0.5-2,1.4-3.9,2.8-5.2c-1.1,0.2-2.1,0.2-2.9,0.2c-3,0.2-4.8-0.2-5.3-0.6l0.1-0.3
		c0.3,0.1,0.7,0.1,0.7,0c0.1-0.1,0-0.2-0.1-0.3c-0.6-0.5-3.2-3.2-3.2-3.2c-0.3-2.3-3.6-2.3-4.9-0.1l-0.4-0.1
		c0.1-0.5,0.3-0.9,0.5-1.2c-2.7,0.6-4.3,3.1-4.6,5.4C19,30.2,34.5,27.8,38.9,31.9c0.1,0.1,0.3,0.4,0.4,0.2
		C39.5,31.5,37.5,29.1,32.5,28 M27.1,15.8c0.7-0.2,1.8,0.5,2.3,1.6c0.6,1.1,0.4,2.2-0.3,2.5c-0.7,0.3-1.8-0.5-2.3-1.6
		c-0.1-0.2-0.1-0.3-0.2-0.5l0.1,0c0.2,0.2,0.5,0.3,0.7,0.2c0.3-0.2,0.2-0.6,0-1c-0.2-0.3-0.5-0.6-0.8-0.6l-0.1-0.1
		C26.7,16,26.9,15.9,27.1,15.8"/>
	<path class="st2" d="M50.1,43.3c-2.5,1.6-7,3.8-12.9,4.2c-3.4,0.2-7.4-0.2-10.4-1c0,1-0.1,2-0.3,3c1.7,0.4,4.6,1,8.9,1.1
		c-0.2,1.1-1.4,5.1-4.3,7.6c5.4,0.2,10.3-1.9,11.8-4.7c-1.5,0.5-4.1,1-6.7,0.9c0.1-0.3,0.3-0.5,0.4-0.8c4.6-0.2,9.6-1.7,10.6-5.5
		c-1.8,1.2-5.7,2.6-9.8,2.8c0.1-0.3,0.1-0.5,0.1-0.8C42.9,49.4,48.6,47.1,50.1,43.3"/>
	<path class="st1" d="M377.5,38c-1.6,0-3.3-0.2-4.6-0.6l4.5-10l4.5,10C380.7,37.8,379.1,38,377.5,38 M393.5,45.6l-10.5-22.9
		c-1.2-2.5-2.8-3.6-5.2-3.6h-0.4c-2.5,0-4.1,1.1-5.3,3.6l-10.5,22.9c-1,2.3-0.3,4.3,1.8,5.1c1.9,0.7,3.7,0.3,4.8-1.9l2.4-5
		c2.1,0.7,4.8,1.1,7.2,1.1c2.6,0,5-0.4,6.9-1.1l2.3,5c1,2.2,3,2.6,4.8,1.9C393.6,49.9,394.4,47.7,393.5,45.6 M354.6,43.7h-16.1
		l15.9-14.3c2.3-2,3.2-3.7,3.2-5.8v-0.3c0-2.6-1.6-4.2-4.5-4.2h-20.3c-2.4,0-3.8,1.7-3.8,3.8c0,2.1,1.4,3.6,3.8,3.6h14.9l-15.4,13.9
		c-3,2.7-3.7,4.3-3.7,6.3v0.4c0,2.6,1.7,4.2,4.4,4.2h21.5c2.4,0,3.8-1.7,3.8-3.7C358.4,45.2,357,43.7,354.6,43.7 M320.9,43.7h-16.1
		l15.9-14.3c2.3-2,3.2-3.7,3.2-5.8v-0.3c0-2.6-1.6-4.2-4.5-4.2h-20.3c-2.4,0-3.8,1.7-3.8,3.8c0,2.1,1.4,3.6,3.8,3.6h14.9l-15.4,13.9
		c-3,2.7-3.7,4.3-3.7,6.3v0.4c0,2.6,1.7,4.2,4.4,4.2h21.5c2.4,0,3.8-1.7,3.8-3.7C324.8,45.2,323.4,43.7,320.9,43.7 M284.6,18.7
		c-2.2,0-4,1.4-4,3.9v24.8c0,2.4,1.8,3.9,4,3.9c2.2,0,4-1.4,4-3.9V22.6C288.5,20.2,286.7,18.7,284.6,18.7 M263.3,34.4h-9v-8.1h9
		c2.5,0,3.9,1.9,3.9,4.1S265.8,34.4,263.3,34.4 M263.3,19h-12.9c-2.1,0-3.8,1.4-3.8,3.8v24.7c0,2.4,1.8,3.8,3.9,3.8
		c2.1,0,3.8-1.4,3.8-3.8v-5.8h9c7,0,11.4-4.9,11.4-11.4C274.6,23.8,270.2,19,263.3,19 M215.3,44c-5.1,0-8.7-3.8-8.7-9
		c0-5.1,3.7-8.9,8.7-8.9c5.1,0,8.7,3.8,8.7,8.9C224,40.2,220.6,44,215.3,44 M215.3,18.7c-9.3,0-16.4,7-16.4,16.3
		c0,9.4,7.1,16.3,16.4,16.3c9.3,0,16.4-7.1,16.4-16.4C231.7,25.6,224.6,18.7,215.3,18.7 M178.2,43.6h-6.6V26.4h6.6
		c5.3,0,8.9,3.2,8.9,8.5S183.6,43.6,178.2,43.6 M178.2,19h-10.5c-2.1,0-3.9,1.6-3.9,4v24.2c0,2.4,1.8,3.8,3.9,3.8h10.5
		c9.4,0,16.5-6.5,16.5-16.1C194.8,25.4,187.6,19,178.2,19 M142.3,44c-5.1,0-8.7-3.8-8.7-9c0-5.1,3.7-8.9,8.7-8.9
		c5.1,0,8.7,3.8,8.7,8.9C151,40.2,147.6,44,142.3,44 M142.3,18.7c-9.3,0-16.4,7-16.4,16.3c0,9.4,7.1,16.3,16.4,16.3
		c9.3,0,16.4-7.1,16.4-16.4C158.7,25.6,151.6,18.7,142.3,18.7 M105.3,43.6h-6.6V26.4h6.6c5.3,0,8.9,3.2,8.9,8.5
		S110.6,43.6,105.3,43.6 M105.3,19H94.8c-2.1,0-3.9,1.6-3.9,4v24.2c0,2.4,1.8,3.8,3.9,3.8h10.5c9.4,0,16.5-6.5,16.5-16.1
		C121.8,25.4,114.6,19,105.3,19"/>
</g>
</svg>
